<?xml version="1.0" encoding="UTF-8" standalone="no"?>
<!-- Generator: Adobe Illustrator 15.0.2, SVG Export Plug-In . SVG Version: 6.00 Build 0)  -->

<svg
   xmlns:dc="http://purl.org/dc/elements/1.1/"
   xmlns:cc="http://creativecommons.org/ns#"
   xmlns:rdf="http://www.w3.org/1999/02/22-rdf-syntax-ns#"
   xmlns:svg="http://www.w3.org/2000/svg"
   xmlns="http://www.w3.org/2000/svg"
   xmlns:sodipodi="http://sodipodi.sourceforge.net/DTD/sodipodi-0.dtd"
   xmlns:inkscape="http://www.inkscape.org/namespaces/inkscape"
   version="1.1"
   id="Layer_1"
   x="0px"
   y="0px"
   width="400"
   height="250"
   viewBox="0 0 400 250"
   enable-background="new 0 0 800 600"
   xml:space="preserve"
   inkscape:version="0.91 r13725"
   sodipodi:docname="testParser.svg"><metadata
     id="metadata4157"><rdf:RDF><cc:Work
         rdf:about=""><dc:format>image/svg+xml</dc:format><dc:type
           rdf:resource="http://purl.org/dc/dcmitype/StillImage" /><dc:title></dc:title></cc:Work></rdf:RDF></metadata><defs
     id="defs4155" /><sodipodi:namedview
     pagecolor="#ffffff"
     bordercolor="#666666"
     borderopacity="1"
     objecttolerance="10"
     gridtolerance="10"
     guidetolerance="10"
     inkscape:pageopacity="0"
     inkscape:pageshadow="2"
     inkscape:window-width="1443"
     inkscape:window-height="812"
     id="namedview4153"
     showgrid="false"
     inkscape:zoom="1.5297077"
     inkscape:cx="276.19869"
     inkscape:cy="158.65968"
     inkscape:window-x="0"
     inkscape:window-y="0"
     inkscape:window-maximized="0"
     inkscape:current-layer="Layer_1" /><path
     style="fill:#ffffff;fill-opacity:1"
     d="m 0.94753353,0.770814 0,209.191406 384.38671647,0 0,-209.191406 -384.38671647,0 z M 68.73269,32.36847 c 11.486622,0.0666 22.779634,4.360324 31.33007,13.933594 7.8445,8.78174 10.91188,20.56146 9.47852,31.511715 3.77026,-2.94217 10.28732,-2.56002 12.69141,2.79102 3.83265,8.53639 -5.75785,18.328561 -12.0293,22.638671 -3.53614,2.43228 -7.4162,4.21601 -11.462886,5.3418 4.863266,-0.8779 9.644086,-2.15218 14.197256,-3.59961 15.20176,-4.82897 28.71808,-12.806731 41.34375,-22.433591 12.379,-9.44149 24.07399,-19.885957 37.58399,-27.732427 11.58135,-6.72517 24.58513,-11.506228 38.13672,-11.111328 11.84463,0.34302 25.63905,4.727896 32.82422,14.816406 0.73787,1.03035 1.36603,2.167558 1.85546,3.361328 0.0899,0.0122 0.17749,0.01549 0.27149,0.05469 l 3.32226,1.396484 c 27.24286,-6.3057 52.02211,17.496779 50.38086,21.992189 13.76407,0.04278 27.17504,5.72123 36.1211,16.355469 7.07059,8.40596 13.52601,22.58442 10.6289,33.83593 -1.02139,3.96254 -4.26157,7.58512 -8.67773,6.99415 -6.49185,-0.87042 -10.13097,-9.26755 -14.03516,-13.48243 -10.89474,-11.76548 -26.48867,-19.44474 -42.5664,-20.30273 -1.59635,-0.0851 -3.32786,-0.011 -5.0918,0.2207 -6.50011,0.84511 -15.80405,5.87056 -15.96094,13.39453 -0.14461,7.01252 7.24391,13.89701 14.19336,10.4961 2.92461,-1.42882 5.19025,-4.69213 4.34375,-8.03125 -0.56203,-2.22194 -4.00011,-6.74289 -5.77148,-2.97266 -0.67287,1.43798 -0.39353,3.37306 -1.42774,4.66406 -1.92453,2.41072 -5.17685,1.57085 -5.71093,-1.44726 -0.58052,-3.2656 1.42868,-6.73406 4.4746,-7.97656 4.12864,-1.68396 9.34968,0.3228 11.60743,4.07812 1.47172,2.45301 1.4962,5.3917 0.55664,8.04297 -5.16443,14.55895 -26.435,6.36579 -25.22657,-7.50586 0.7999,-9.18946 7.46826,-13.21309 15.4961,-14.46484 -5.37521,0.12461 -10.78876,0.67726 -16.20117,1.66601 -12.3685,2.26179 -25.40457,5.79968 -38.18555,6.48242 10.82019,19.81095 4.42484,44.54417 -15.0957,56.61329 -0.77672,0.47956 -1.49209,-0.17175 -1.55469,-0.87305 -0.12093,-0.19848 -0.21888,-0.48411 -0.30078,-0.85938 -0.007,-0.0146 -0.0145,-0.0245 -0.0215,-0.0391 -6.64617,-16.16103 -20.99401,-22.82607 -36.79492,-25.24805 -0.18091,0.0193 -0.36512,-0.0141 -0.54101,-0.0801 -10.74372,-1.58094 -22.12207,-1.23392 -32.18164,-0.60157 12.17544,12.14623 17.41569,29.81948 13.2832,47.28907 -0.19193,0.82066 -1.06346,0.91053 -1.60352,0.53906 -0.33507,-0.12668 -0.58065,-0.42305 -0.53515,-0.9043 l 0.006,-0.0508 c 0.29146,-3.07947 -0.16827,-6.1978 -1.41211,-9.0293 -11.34343,-25.81188 -49.28677,-24.17473 -72.611327,-31.14062 -2.92612,-0.87441 -5.77103,-1.92838 -8.53125,-3.14649 3.98101,8.71619 2.759662,19.58422 -4.117188,26.6211 -7.20587,7.37346 -18.644511,8.73574 -27.707031,4.31054 -0.04455,0.0231 -2.223664,-0.89739 -1.308594,-1.60937 12.17776,-7.20509 16.786028,-22.30897 9.955078,-34.36133 -1.7284,-1.5002 -3.411557,-2.86888 -4.873046,-4.07617 C 43.420541,132.23377 36.71214,124.46171 31.57644,115.64386 22.52623,100.10538 18.921865,82.157919 20.648705,64.440736 l 1.027344,-11.248047 2.525391,0.84375 c 1.91657,0.64045 4.685546,-3.195312 4.685546,-3.195312 C 38.875845,39.185542 53.964175,32.282835 68.73269,32.36847 Z"
     id="path4145"
     inkscape:connector-curvature="0" /><path
     style="fill:#ffffff;fill-opacity:1"
     d="m 293.9977,118.97092 c -1.2682,-0.0538 -2.41679,0.30533 -3.31238,1.18603 -0.3311,0.3243 -0.45342,0.50843 -0.66841,0.86292 -0.33098,0.57289 -0.52424,1.18634 -0.57959,1.83546 -0.0122,1.34499 -0.98507,1.78234 -2.8972,1.32482 0.57718,-5.62297 7.01044,-7.61065 10.96504,-4.04259 0.91457,0.82099 1.52352,1.84277 1.88621,2.95245 -0.96063,-2.175 -2.9229,-4.01587 -5.39367,-4.11909"
     id="path4400"
     inkscape:connector-curvature="0" /><path
     style="fill:#ffffff;fill-opacity:1"
     d="m 120.78435,83.643089 c 0.4206,2.81255 -0.92675,5.65917 -2.31598,8.01715 -2.5347,4.29162 -6.40491,7.908451 -10.58624,10.570631 -7.26284,4.6275 -15.912366,6.47544 -24.355258,5.31211 0.0865,-0.0439 0.16614,-0.0974 0.2716,-0.12132 l 0.12035,-0.0307 c 11.807072,-2.90442 19.687198,-11.00656 23.435728,-20.856401 2.48315,5.4825 11.73587,4.01275 9.94246,-2.89993 0,0 -0.85844,1.19619 -1.36933,1.75412 -1.04946,1.14435 -2.61356,1.71322 -4.15142,1.37622 -0.82345,-0.17979 -1.59438,-0.65791 -2.04405,-1.37286 -0.51023,-0.81173 -0.56042,-1.85629 -0.28043,-2.77191 0.6844,-2.25651 2.93723,-3.88512 5.26315,-3.99811 2.98734,-0.14495 5.63039,2.08844 6.06947,5.02092"
     id="path4398"
     inkscape:connector-curvature="0" /><path
     style="fill:#ffffff;fill-opacity:1"
     d="M 103.89035,152.46044 C 89.169402,149.86011 75.589142,144.48032 63.894062,134.851 c -1.01883,-0.83865 -2.09189,-1.82511 -3.18201,-2.89493 -1.53803,-1.50929 0.42343,-3.93355 2.22681,-2.75047 0.0526,0.0331 0.10525,0.0689 0.15787,0.10207 11.83771,7.73485 25.34357,11.22367 39.024828,14.12533 20.96766,4.44584 51.88737,12.22395 58.59729,34.7674 -10.81264,-18.47272 -37.00346,-22.2363 -56.82855,-25.73996"
     id="path4396"
     inkscape:connector-curvature="0" /><path
     style="fill:#ffffff;fill-opacity:1"
     d="m 163.32347,180.49857 c -4.40788,-19.89579 -26.72447,-31.03424 -45.59575,-35.74596 -0.0653,-0.017 -0.13058,-0.0331 -0.19587,-0.0494 -1.81958,-0.45484 -1.43934,-3.14911 0.43545,-3.08506 1.32701,0.0434 2.65633,0.0916 3.98313,0.14227 7.35723,0.27644 14.95238,-0.005 20.33882,5.54141 0.93715,0.96548 2.14011,0.49581 1.20762,-0.46222 -4.26217,-4.3934 -9.69202,-6.16896 -15.68385,-6.80066 -0.4228,-0.0439 -0.85084,-0.0758 -1.27378,-0.11499 4.36059,-0.35142 8.68173,-0.94037 12.98354,-1.70294 15.28848,9.00709 24.08794,25.12568 23.80078,42.27769"
     id="path4394"
     inkscape:connector-curvature="0" /><path
     style="fill:#ffffff;fill-opacity:1"
     d="m 182.43244,142.83924 c -1.10683,-0.15641 -2.2244,-0.2789 -3.34197,-0.40144 0.42279,-1.72303 0.84796,-3.44356 1.27076,-5.16662 1.09793,0.12692 2.19336,0.25607 3.28789,0.41695 -0.40319,1.71872 -0.81115,3.43489 -1.21668,5.15111"
     id="path4392"
     inkscape:connector-curvature="0" /><path
     style="fill:#ffffff;fill-opacity:1"
     d="m 185.75729,138.02457 c 1.3218,0.22364 2.64067,0.46399 3.95126,0.73835 -0.49515,1.69658 -0.99035,3.3956 -1.48551,5.09218 -1.21594,-0.25945 -2.44514,-0.48271 -3.68214,-0.68915 0.40546,-1.71378 0.81094,-3.42758 1.21639,-5.14138"
     id="path4390"
     inkscape:connector-curvature="0" /><path
     style="fill:#ffffff;fill-opacity:1"
     d="m 176.95177,142.22963 c -0.82655,-0.0726 -1.65373,-0.12351 -2.48076,-0.17906 0.0633,-1.76513 0.12912,-3.53019 0.19733,-5.29518 1.18471,0.0758 2.37376,0.17102 3.55979,0.28589 -0.42545,1.73027 -0.85081,3.4581 -1.27626,5.18838"
     id="path4388"
     inkscape:connector-curvature="0" /><path
     style="fill:#ffffff;fill-opacity:1"
     d="m 172.34956,141.92333 c -0.78606,-0.0399 -1.57248,-0.0675 -2.35895,-0.0926 -0.007,-1.755 -0.0122,-3.51239 -0.0195,-5.26739 0.85975,0.0195 1.71692,0.0448 2.57604,0.0867 -0.068,1.7577 -0.13107,3.51553 -0.1966,5.27328"
     id="path4386"
     inkscape:connector-curvature="0" /><path
     style="fill:#ffffff;fill-opacity:1"
     d="m 167.86303,141.77642 c -0.67224,-0.0146 -1.33787,-0.005 -2.00797,-0.01 -0.25209,-1.73039 -0.50168,-3.46317 -0.75134,-5.19349 0.91193,-0.0146 1.82674,-0.0446 2.73805,-0.0378 0.007,1.74528 0.0122,3.49289 0.0219,5.24061"
     id="path4384"
     inkscape:connector-curvature="0" /><path
     style="fill:#ffffff;fill-opacity:1"
     d="m 163.72102,141.75624 c -0.55335,0.002 -1.09967,0.0171 -1.65073,0.0253 -0.24812,-1.69862 -0.49627,-3.39722 -0.74442,-5.09582 0.54919,-0.028 1.09857,-0.0633 1.6499,-0.0814 0.24766,1.71565 0.49523,3.43374 0.74525,5.15191"
     id="path4382"
     inkscape:connector-curvature="0" /><path
     style="fill:#ffffff;fill-opacity:1"
     d="m 159.26822,137.21353 c 0.22608,1.53224 0.44987,3.0644 0.67351,4.599 -0.49016,0.01 -0.97325,0.0278 -1.46112,0.0431 -0.23266,-1.64455 -0.46768,-3.29157 -0.70026,-4.93855 0.50322,-0.039 1.00453,-0.0977 1.51002,-0.1318 -0.0307,0.13326 -0.0446,0.27412 -0.0219,0.42831"
     id="path4380"
     inkscape:connector-curvature="0" /><path
     style="fill:#ffffff;fill-opacity:1"
     d="m 156.35841,141.92815 c -0.37581,0.0146 -0.74443,0.037 -1.12021,0.0529 -0.27833,-1.5825 -0.55428,-3.16248 -0.83266,-4.74254 0.4229,-0.0438 0.84601,-0.095 1.26884,-0.13618 0.22875,1.60788 0.45761,3.21817 0.68403,4.82597"
     id="path4378"
     inkscape:connector-curvature="0" /><path
     style="fill:#ffffff;fill-opacity:1"
     d="m 153.10521,142.08032 c -0.24896,0.0122 -0.48587,0.0297 -0.73488,0.0446 -0.16517,-1.53535 -0.33271,-3.07075 -0.50034,-4.60374 0.14179,-0.017 0.28394,-0.0429 0.42575,-0.0585 0.26985,1.53837 0.53964,3.07918 0.80947,4.61758"
     id="path4376"
     inkscape:connector-curvature="0" /><path
     style="fill:#ffffff;fill-opacity:1"
     d="m 190.29969,144.33948 c 0.49786,-1.70625 0.9933,-3.41258 1.49367,-5.12117 0.0897,0.0219 0.1793,0.0392 0.26881,0.059 1.40643,0.33073 2.82996,0.74486 4.24748,1.19779 -0.81435,1.60934 -1.62859,3.21625 -2.44283,4.82318 -1.17183,-0.35323 -2.36431,-0.66559 -3.56713,-0.95879"
     id="path4374"
     inkscape:connector-curvature="0" /><path
     style="fill:#ffffff;fill-opacity:1"
     d="m 195.90924,145.96915 c 0.81176,-1.60454 1.62595,-3.20901 2.44012,-4.81347 1.94149,0.70695 3.86022,1.52536 5.70712,2.46843 -1.25261,1.34319 -2.50274,2.68399 -3.75286,4.02481 -1.42712,-0.62627 -2.90047,-1.171 -4.39438,-1.67977"
     id="path4372"
     inkscape:connector-curvature="0" /><path
     style="fill:#ffffff;fill-opacity:1"
     d="m 202.32828,148.59713 c 1.21748,-1.30764 2.43983,-2.61514 3.6548,-3.92042 1.99445,1.14963 3.88756,2.43282 5.58543,3.89311 -1.15405,1.13645 -2.30563,2.27296 -3.45965,3.40938 -1.83251,-1.27166 -3.76694,-2.3903 -5.78058,-3.38207"
     id="path4370"
     inkscape:connector-curvature="0" /><path
     style="fill:#ffffff;fill-opacity:1"
     d="m 209.84367,153.25778 c 1.09633,-1.07959 2.19266,-2.15921 3.28903,-3.24126 3.99907,3.96902 6.67903,8.96736 6.89171,15.08845 -2.70832,-4.86022 -6.17864,-8.74084 -10.18074,-11.84719"
     id="path4368"
     inkscape:connector-curvature="0" /><path
     style="fill:#ffffff;fill-opacity:1"
     d="m 198.10038,138.72832 c -7.36439,-2.38483 -15.10784,-3.71557 -22.93404,-4.20787 2.43477,-1.7e-4 4.8727,0.0582 7.30812,0.2044 12.80001,0.76308 32.86496,2.37997 38.73362,16.35423 2.14549,5.10716 2.42855,1.30845 3.12406,-1.24754 0.92467,-3.39993 0.97941,-8.15087 0.60726,-11.62734 -0.33848,-3.20743 -1.42295,-5.98799 -2.38804,-9.01857 -1.36302,-4.27045 -3.32312,-8.2901 -5.7982,-11.9469 15.24585,11.99385 18.21477,34.53376 5.35681,50.16158 0.94293,-14.54956 -11.24386,-24.53675 -24.00959,-28.67192"
     id="path4366"
     inkscape:connector-curvature="0" /><path
     style="fill:#ffffff;fill-opacity:1"
     d="m 226.87278,115.20669 c 7.58273,9.32009 11.12861,21.95243 7.7077,33.61774 -0.38667,1.31707 0.64138,1.58568 1.02797,0.27104 3.42871,-11.68213 1.17171,-24.04803 -5.88261,-33.68918 0.017,5.1e-4 0.0341,0.001 0.0512,0.001 3.38553,0.15909 6.3965,2.22762 7.65559,5.37397 6.69813,16.72305 1.59908,35.92433 -13.01261,47.05594 11.04038,-14.30105 10.08544,-33.84091 -0.79456,-46.87332 -2.03978,-2.4451 -0.0672,-6.09009 3.10155,-5.77165 0.0487,0.005 0.0972,0.007 0.14593,0.0146"
     id="path4364"
     inkscape:connector-curvature="0" /><path
     style="fill:#ffffff;fill-opacity:1"
     d="m 207.97197,115.30769 c 5.90327,3.85845 10.50161,9.35103 12.99426,15.59908 1.38114,4.73892 1.9735,9.78403 1.66966,14.97377 -0.12595,0.73483 -0.27422,1.47387 -0.46132,2.21181 -5.76531,-11.31473 -20.82151,-13.44705 -32.38826,-14.80078 -9.31025,-1.08854 -18.66859,-1.1061 -27.9336,-0.13887 14.03196,-3.56871 28.48671,-7.09347 42.82861,-4.02888 1.30794,0.2816 1.57348,-0.72459 0.26547,-1.00375 -28.28893,-6.04706 -55.1088,9.30072 -83.10946,10.04719 -22.620036,0.60249 -45.072478,-5.59237 -64.215408,-17.41882 -6.7736,-4.18587 -12.52708,-10.01899 -16.45242,-16.86908 -0.5266,-0.91944 -1.24774,-1.93959 -1.58451,-1.83966 -0.79607,-0.28384 -0.74445,0.1223 0.31633,3.97205 5.4854,14.58464 15.80411,27.47405 28.74972,36.00141 10.05669,6.62066 12.9994,20.30302 5.8556,29.9936 -0.24119,0.32935 -0.49433,0.65835 -0.75975,0.98699 -5.62723,6.97559 -16.05211,7.85086 -24.09971,4.48355 6.80761,-4.5627 10.91024,-11.57514 11.77932,-19.11504 0.40772,-3.55867 5.42286,-4.2104 6.68324,-0.85688 1.52286,4.05329 1.27273,8.31358 -2.44504,12.47346 -0.89167,0.99781 -0.42953,2.20786 0.46221,1.20761 6.0149,-6.72795 4.27148,-15.78878 -0.87668,-22.49392 -6.49851,-8.46738 -16.35237,-13.84408 -23.31772,-22.013 -16.53308,-19.3866 -22.91014,-45.427551 -18.0171,-70.30858 2.00271,0.52838 3.30952,2.44775 3.06471,4.50495 -0.87429,7.29848 -0.7652,14.640049 0.3371,22.022569 0,0 0.67414,-6.2782 1.41488,-13.17354 2.17276,-20.238939 19.31254,-35.940189 39.66116,-35.450809 0.5432,0.0122 1.08596,0.0363 1.63093,0.0692 16.53347,1.02719 31.583058,11.5506 36.540638,27.61396 4.75264,15.396969 -1.34568,32.495239 -15.643506,40.44808 -11.486422,6.39156 -25.803842,4.24896 -35.151412,-4.30337 -8.48326,-9.363251 -11.66847,-23.508391 -2.18218,-33.88422 5.0338,-5.50365 13.03989,-8.44504 20.32821,-6.21109 7.86089,2.40897 14.27564,11.244349 12.11621,19.577989 -1.90441,7.35392 -9.99438,13.44417 -17.69582,11.33717 -4.41535,-1.20754 -7.79087,-4.82707 -9.32854,-9.04164 1.45162,1.71639 3.50934,2.95316 5.96734,3.32899 4.44291,0.67704 8.88758,-1.90441 10.49092,-6.10114 2.10155,-5.49351 -1.05555,-11.436659 -6.58479,-12.893379 -5.18587,-1.36392 -10.49606,1.73351 -11.85996,6.919379 -0.0244,0.087 -0.0344,0.17443 -0.0563,0.25914 -3.9701,10.85242 3.94948,22.25881 15.50674,23.85597 13.53563,1.871401 25.904822,-8.99859 27.443868,-22.25138 C 101.62254,58.32409 90.714022,45.09832 76.418742,42.69556 c -14.3098,-2.4056 -27.95779,6.92357 -33.91875,19.78509 -0.55903,1.20971 0.49542,0.98677 1.05694,-0.22535 4.99653,-10.78128 16.42644,-18.25173 28.60926,-17.88918 12.6503,0.37856 23.571742,9.37128 25.530772,22.01129 1.959296,12.630249 -7.230972,25.912489 -20.380342,26.945259 -0.75729,0.0609 -1.51316,0.0731 -2.26041,0.0392 -1.39464,-0.0648 -1.60094,-2.03024 -0.24167,-2.34427 0.0441,-0.0122 0.0882,-0.0195 0.13496,-0.0302 13.18901,-3.15931 17.382552,-18.95033 8.76635,-28.856059 -8.30722,-9.55069 -22.54988,-8.63732 -31.11344,0.0884 -2.79001,2.84139 -4.66433,6.21138 -5.71418,9.809949 -1.001,3.42698 -5.86425,3.37874 -6.68,-0.096 -1.08091,-4.586429 -1.6216,-9.396049 -1.54508,-14.394969 0.0219,-1.34226 -1.05408,-1.05172 -1.07584,0.2881 -0.25818,16.994449 5.86167,32.981799 17.66011,45.10249 24.53644,25.20688 63.767418,26.9962 94.849238,14.19686 5.80393,-2.38853 11.10615,-6.3051 17.21574,-7.88783 5.6307,-1.45767 11.5757,-1.14413 17.3312,-0.85072 8.18907,0.41751 16.39899,2.38814 23.32831,6.91972"
     id="path4362"
     inkscape:connector-curvature="0" /><path
     style="fill:#ffffff;fill-opacity:1"
     d="m 328.01056,88.484529 c 0.64006,0.11596 1.236,0.24045 1.75605,0.37746 13.49796,3.50807 25.49217,13.160681 30.93465,26.113601 1.9314,4.58912 3.79451,11.19916 3.45325,16.75584 -0.0733,1.18235 -0.24505,2.31797 -0.53895,3.37696 -1.46105,5.25861 -9.63273,4.57595 -12.58947,1.0563 -1.47026,-1.74618 -2.69341,-3.69237 -4.13358,-5.46693 -2.79328,-3.44181 -5.94876,-6.57968 -9.38485,-9.36986 -0.84528,-0.68739 -1.71314,-1.35352 -2.58892,-1.99794 -1.26726,-0.92872 -0.0672,-2.89978 1.33568,-2.19134 4.96978,2.51287 9.76489,5.50328 14.33389,8.97944 1.06595,0.81076 1.83023,0.005 0.78097,-0.79385 -19.09879,-14.52804 -43.04914,-22.5235 -66.95443,-19.87196 -9.40607,1.04124 -20.35886,3.22947 -31.05912,5.70287 -0.0319,0.007 -0.0614,0.0122 -0.0933,0.0195 -3.24212,0.69577 -5.00835,-3.70579 -2.26372,-5.56876 0.77814,-0.52826 1.46419,-0.99097 1.69489,-1.13051 1.75196,-1.08013 3.55278,-2.08084 5.39497,-2.99506 3.67944,-1.82614 7.52935,-3.31102 11.483,-4.42242 8.89761,-2.503691 17.93308,-2.951241 27.01776,-1.311111 3.50832,0.632921 7.24211,1.979151 10.83971,1.464291 3.92315,-0.56392 6.14614,-3.433941 9.06948,-5.745041 3.23003,-2.55083 7.44114,-3.71571 11.51192,-2.9812"
     id="path4360"
     inkscape:connector-curvature="0" /><path
     style="fill:#ffffff;fill-opacity:1"
     d="m 290.24757,74.966299 c -9.44955,-2.00164 -20.05908,0.2843 -30.28999,7.42146 -5.86286,4.088 -9.05162,6.22324 -10.68537,6.41967 -6.38228,8.221051 -13.16908,14.673201 -24.07266,13.816351 -0.84867,-0.066 -1.12678,1.0373 0.32001,1.15234 16.68739,1.35091 30.25588,-8.599621 43.1041,-17.664371 15.86625,-11.19519 45.81811,3.4936 45.81811,3.4936 -4.8247,7.625191 -9.56914,5.66231 -22.26375,3.11095 -5.66275,-1.13889 -11.5535,-0.12741 -17.23275,0.90231 -4.74818,0.85932 -9.35081,2.24684 -13.74974,4.091131 5.28314,-3.173781 10.62595,-6.219101 16.31092,-8.708561 10.67383,-4.67496 -3.29142,-1.72582 -19.8999,8.504701 -8.46923,5.21649 -17.22934,10.71458 -27.22362,12.2896 -8.08446,1.27205 -15.94255,-0.47633 -23.51507,-3.16453 -2.65729,-2.07789 -5.55424,-3.87513 -8.64824,-5.34907 -4.13495,-1.9696 -3.29973,-8.087141 1.2188,-8.843421 17.43748,-2.92171 37.98385,3.44707 51.4033,-11.11897 0.90592,-0.98521 0.4437,-2.19283 -0.46222,-1.20761 -14.48881,15.72441 -38.57769,6.36983 -57.26406,11.93628 -1.4775,0.43977 -2.52286,-1.4184 -1.36733,-2.43779 2.31093,-2.03638 4.70545,-4.09714 6.42639,-5.45358 8.7121,-6.8692 19.506,-11.31401 30.65498,-11.69303 8.11413,-0.27682 15.0265,2.48486 22.8412,3.79574 2.30172,0.38591 4.75544,0.48867 6.97675,-0.0514 -1.84265,1.94024 -2.52922,3.09265 -4.25328,5.3142 1.54496,0.007 3.59734,-6.1e-4 9.86816,-4.5423 11.47616,-8.309949 25.98526,-2.01367 25.98526,-2.01367"
     id="path4358"
     inkscape:connector-curvature="0" /><path
     style="fill:#ffffff;fill-opacity:1"
     d="m 273.01151,67.56743 c -2.96483,0.54539 -5.59812,1.677969 -7.99981,3.229159 0.83425,-2.045029 0.90565,-4.258369 0.45111,-6.404079 l 7.5487,3.17492 z"
     id="path4356"
     inkscape:connector-curvature="0" /><path
     style="fill:#ffffff;fill-opacity:1"
     d="m 260.32001,61.28967 c 3.42802,4.16211 2.90498,10.188779 -2.62917,12.182989 -2.7806,1.00158 -5.84736,0.52283 -8.62717,-0.18661 -4.23868,-1.08057 -8.18914,-2.94003 -12.52451,-3.71145 -5.8339,-1.036589 -11.71761,-0.773169 -17.40353,0.5708 -0.39395,-0.87174 -0.21244,-2.009529 0.83551,-2.593359 4.51302,-2.50147 9.31541,-4.47544 14.54282,-5.64015 1.30747,-0.29115 1.48955,-1.02434 0.18198,-0.73319 -16.05741,3.57341 -29.07652,13.405799 -40.93462,24.132129 -25.31548,22.900401 -56.20294,40.938041 -91.6292,37.204351 -8.489686,-0.89418 -16.776408,-3.24234 -24.418498,-6.80992 10.81877,3.86918 22.526588,5.14901 34.030708,3.44712 37.09718,-5.48903 60.1561,-39.171131 91.61526,-55.91026 8.89145,-4.73145 18.6451,-8.09747 28.71488,-8.99761 8.63791,-0.77347 22.2273,-0.2532 28.24542,7.04504"
     id="path4354"
     inkscape:connector-curvature="0" /><path
     style="fill:#ffffff;fill-opacity:1"
     d="m 237.33372,46.51003 c 5.90249,1.02395 12.15504,3.25717 17.24171,6.86773 -20.45701,-7.3508 -43.73233,-3.8134 -62.05808,8.15141 -1.12032,0.73039 0.18978,1.52631 1.31267,0.79112 14.18962,-9.26476 31.36188,-12.79125 47.82231,-10.16737 -6.42418,-0.34691 -12.70489,0.24379 -16.59954,1.00108 -19.6717,3.82456 -36.07077,15.913409 -51.32902,28.247319 -16.33139,13.20217 -32.82123,27.752391 -53.41388,33.753511 -14.72315,4.29203 -30.362658,3.19811 -44.353268,-2.40317 23.926638,5.61607 49.692058,0.001 69.149008,-15.34296 1.05263,-0.83227 0.57299,-2.028221 -0.46458,-1.2101 -16.70602,13.17912 -39.24097,18.58537 -60.047568,15.98428 19.949868,0.37305 42.179348,-8.96107 56.785868,-18.062631 29.42646,-18.33588 57.18343,-54.343479 95.95437,-47.610219"
     id="path4352"
     inkscape:connector-curvature="0" /></svg>